<?xml version="1.0" encoding="UTF-8"?>
<!DOCTYPE svg PUBLIC "-//W3C//DTD SVG 1.1//EN" "http://www.w3.org/Graphics/SVG/1.1/DTD/svg11.dtd">
<!-- Creator: CorelDRAW -->
<svg xmlns="http://www.w3.org/2000/svg" xml:space="preserve" width="206.607mm" height="129.529mm" version="1.1" style="shape-rendering:geometricPrecision; text-rendering:geometricPrecision; image-rendering:optimizeQuality; fill-rule:evenodd; clip-rule:evenodd"
viewBox="0 0 20678.9 12964.27"
 xmlns:xlink="http://www.w3.org/1999/xlink"
 xmlns:xodm="http://www.corel.com/coreldraw/odm/2003">
 <defs>
  <style type="text/css">
   <![CDATA[
    .fil3 {fill:#39B0CA;fill-rule:nonzero}
    .fil1 {fill:#4AB968;fill-rule:nonzero}
    .fil0 {fill:#B3BFC4;fill-rule:nonzero}
    .fil2 {fill:#F2EB48;fill-rule:nonzero}
    .fil4 {fill:#FEFEFE;fill-rule:nonzero}
   ]]>
  </style>
 </defs>
 <g id="Camada_x0020_1">
  <metadata id="CorelCorpID_0Corel-Layer"/>
  <polygon class="fil0" points="8581.7,12894.49 471.86,7939.64 1157.27,7506.37 9235.4,12441.66 16552.7,7834.44 16585.64,7855.23 "/>
  <polygon class="fil0" points="16552.7,7834.44 8475.81,2878.89 1157.27,7506.37 1125.55,7486.81 9130.02,2425.88 17239.34,7402.23 "/>
  <path class="fil0" d="M9235.4 12441.66l-8077.96 -4935.29 7318.54 -4626.94 8076.9 4954.85 -7317.31 4607.2 -0.17 0.18zm-2380.25 -7636.75c-578.28,309.75 -1058.77,778.43 -1383.86,1348.97 -129.15,230.81 -233.82,477.32 -307.29,737.56 -91.8,307.29 -139.54,632.2 -139.54,969.97 0,1910.68 1549.65,3461.05 3461.05,3461.05 875.88,0 1675.1,-325.62 2284.75,-861.08 659.68,-352.57 1190.39,-911.29 1506.14,-1591.24 112.07,-235.05 201.4,-492.12 251.61,-755.18 50.21,-229.58 72.77,-464.46 72.77,-704.96 0,-1913.15 -1549.66,-3462.82 -3462.82,-3462.82 -875.87,0 -1674.4,323.67 -2283.52,857.38l0.71 0.35z"/>
  <path class="fil0" d="M8485.67 11322.27c-1911.38,0 -3461.05,-1550.18 -3461.05,-3461.05 0,-337.77 47.75,-663.38 139.55,-969.96 73.47,-259.54 177.43,-506.75 307.29,-737.57 324.91,-570.35 805.4,-1039.21 1383.85,-1348.97 -288.78,253.9 -535.46,556.26 -726.46,892.97 -81.93,143.26 -151.17,290.03 -208.61,441.21 -25.73,0 -48.98,0 -72.77,0 -245.97,0 -375.83,14.09 -375.83,14.09 -129.15,230.81 -233.82,477.32 -307.29,737.56 38.59,-0.53 108.9,-1.76 205.1,-1.76 93.56,0 211.79,0.53 348.17,4.23 -25.02,167.04 -36.65,340.23 -36.65,516.6 0,733.87 228.88,1413.1 619.33,1973.24l-14.62 -14.62 -33.66 33.66 33.66 33.65 30.66 -30.66c626.73,884.34 1658.02,1462.79 2822.68,1462.79 590.61,0 1146.34,-147.47 1632.3,-405.78 -609.65,534.93 -1408.88,861.08 -2284.76,861.08l-0.88 -0.71zm-3011.21 -2247.4l-24.49 23.79 24.49 24.49 23.78 -24.49 -23.78 -23.79zm312.75 -171.26l-44.75 44.75 44.75 39.11 44.76 -39.11 -44.76 -44.75zm-296.71 -1588.78l-42.29 42.29 42.29 42.82 42.29 -42.82 -42.29 -42.29z"/>
  <path class="fil0" d="M5718.14 6893.03c-135.85,-3.7 -253.9,-4.23 -348.17,-4.23 -96.03,0 -166.51,1.23 -205.1,1.76 73.47,-259.54 177.44,-506.75 307.29,-737.56 0,0 129.15,-14.09 375.83,-14.09 23.78,0 47.04,0 72.76,0 -29.95,76.47 -56.38,154.17 -79.64,232.57 -29.95,-18.33 -64.84,-28.19 -102.9,-28.19 -1.76,0 -3.69,0.53 -5.45,0.53 -122.46,2.47 -210.56,99.2 -205.62,242.98 2.46,137.78 88.1,226.41 205.09,226.41 -4.93,26.95 -9.16,52.69 -12.86,79.64l-1.23 0.18zm16.55 -127.22c-90.56,0 -142.54,-85.09 -145.71,-180.6 -4.93,-99.2 42.82,-191 138.84,-193.46 1.23,0 2.99,0 4.22,0 37.35,0 68.02,14.09 90.57,36.64 -1.23,2.47 -1.76,4.93 -2.47,7.41 -33.65,107.65 -59.9,217.95 -81.4,329.31 -0.53,0 -0.53,0 -0.53,0 -1.76,0 -2.99,0 -4.22,0l0.7 0.7z"/>
  <path class="fil0" d="M5731 6813.56c-116.82,0 -202.63,-88.1 -205.1,-226.41 -4.93,-144.49 83.17,-240.51 205.63,-242.98 1.76,0 3.69,-0.52 5.45,-0.52 38.59,0 73.47,9.86 102.9,28.18 -6.17,18.33 -11.63,37.88 -16.56,56.92 -23.25,-22.73 -53.92,-36.65 -90.56,-36.65 -1.23,0 -3,0 -4.23,0 -96.02,2.46 -143.78,94.26 -138.84,193.46 2.47,94.79 54.45,180.61 145.72,180.61 1.23,0 2.46,0 4.22,0 0,0 0,0 0.53,0 -2.99,15.85 -6.17,32.42 -8.63,47.74l-0.53 -0.35z"/>
  <polygon class="fil0" points="5475.16,9123.33 5450.67,9098.84 5475.16,9074.88 5498.95,9098.84 "/>
  <polygon class="fil0" points="5490.49,7399.77 5448.2,7356.95 5490.49,7314.84 5532.6,7356.95 "/>
  <polygon class="fil1" points="-0,12964.26 20678.89,12964.26 20678.89,0 -0,0 "/>
  <polygon class="fil2" points="2289.51,6529 10294.16,1468.78 18404,6445.13 10399.35,11484.56 "/>
  <path class="fil3" d="M13766.13 6450.59c0,241.74 -24.49,478.03 -72.76,704.44 -53.22,266.76 -140.08,520.14 -251.61,759.59 -552.03,1178.06 -1747.88,1997.03 -3138.43,1997.03 -1910.69,0 -3461.05,-1549.66 -3461.05,-3461.06 0,-337.77 48.27,-663.38 140.07,-969.96 74.01,-258.84 178.14,-506.22 307.29,-737.56 598.54,-1049.08 1722.16,-1755.28 3014.21,-1755.28 1913.85,0 3462.81,1549.66 3462.81,3462.81l-0.53 0z"/>
  <path class="fil4" d="M13693.37 7155.03c-53.22,266.76 -140.08,520.14 -251.61,759.59l-12.86 -13.39c-731.92,-888.56 -1846.37,-1597.94 -3155,-2037.37 -1208.18,-406.31 -3024.61,-388.69 -3291.37,-383.05 74,-258.84 178.14,-506.22 307.28,-737.57 0,0 1165.38,-129.15 3152.53,389.22 1963.9,511.68 3058.26,1776.07 3251.72,2022.75l-0.7 -0.18z"/>
  <path class="fil1" d="M7556.58 5356.4c-93.56,2.47 -147.47,-84.39 -149.94,-180.6 -4.22,-99.2 42.82,-190.3 140.07,-192.76 99.21,-3 146.95,91.27 149.42,180.6 2.46,103.96 -47.04,191 -139.55,193.46l0 -0.7zm-7.4 -422.34c-122.46,2.46 -209.85,99.2 -205.09,243.5 2.46,139.54 90.56,228.88 209.84,226.41 116.29,-2.46 208.62,-88.8 206.33,-245.97 -6.17,-135.32 -90.04,-226.42 -211.09,-223.95z"/>
  <path class="fil1" d="M7958.13 5152.54l-60.61 -1.76 2.47 -165.28 58.14 -5.46c61.14,0 103.43,28.19 103.43,86.87 0,50.22 -39.83,85.64 -103.43,85.64zm142.55 116.82l-66.07 -91.27 0 -2.47c47.04,-14.62 86.34,-55.15 86.34,-116.82l-36.65 -86.34c-26.25,-25.72 -68.01,-37.87 -128.44,-37.87l-113.83 7.4 -6.17 449.84 58.67 0 2.47 -195.93 55.68 0c53.21,2.46 76.47,25.72 91.27,88.8 10.39,58.15 20.26,96.74 27.48,108.9l61.84 2.46c-10.4,-18.33 -20.79,-63.61 -33.65,-127.21l1.05 0.53z"/>
  <path class="fil1" d="M8316.17 5361.16l-59.9 -7.4 16.56 -358.57 71.53 -2.46c124.92,5.46 181.13,76.47 175.66,183.07 -4.22,124.92 -78.93,191 -203.86,185.35zm208.62 -350.63c-38.59,-38.58 -97.27,-61.14 -181.14,-66.78l-126.15 2.46 -23.26 450.37 105.89 9.87c89.34,5.45 160.34,-14.62 206.33,-56.39 42.29,-37.88 71.53,-98.49 74.01,-172.67 4.92,-73.47 -17.8,-126.68 -55.68,-167.04l0 0.18z"/>
  <polygon class="fil1" points="8924.4,5041.19 8930.04,4992.2 8682.66,4969.47 8641.78,5421.77 8895.69,5447.49 8900.61,5396.75 8702.22,5378.43 8718.25,5215.62 8895.69,5231.48 8898.15,5182.5 8723.19,5167.88 8735.35,5022.69 "/>
  <path class="fil1" d="M9378.64 5050.87l-111.36 205.62c-28.19,55.68 -51.46,101.67 -69.77,145.02l-2.47 0c-4.93,-47.75 -11.63,-99.2 -23.26,-157.35l-44.75 -229.58 -76.47 -9.17 -93.56 444.37 55.15 9.87 39.11 -193.46c14.09,-66.08 28.19,-141.31 37.35,-197.69 4.93,56.38 15.86,116.81 28.19,183.07l44.05 226.41 42.29 4.93 113.29 -208.09c29.96,-58.67 57.62,-112.06 81.41,-162.8l1.76 0c-10.4,55.68 -15.86,132.15 -23.26,195.93l-15.33 200.69 55.68 7.41 34.89 -454.07 -72.77 -10.39 -0.17 -0.71z"/>
  <path class="fil1" d="M9901.77 5579.12l-69.25 -109.6 78.94 -75.94c36.12,68.54 71.53,135.32 91.8,167.74l-101.67 17.8 0.18 0zm33.12 -320.15l71.54 -50.74 35.41 71.53 -93.56 68.54 -12.86 -88.8 -0.53 -0.53zm236.81 170.21l-50.74 -12.16 -76.47 116.29 -77.17 -146.95 0 -2.47c78.93,-17.8 115.58,-48.98 127.91,-94.26 12.86,-58.67 -21.49,-107.12 -75.94,-119.28 -74.01,-17.8 -124.93,28.19 -137.79,81.4l12.86 101.67 0 2.46c-57.61,14.62 -103.95,47.75 -119.99,109.6 -14.62,65.55 20.79,134.09 107.12,157.35l143.26 -21.5 29.42 53.92 69.25 17.8 -55.15 -96.74c43.52,-30.66 76.47,-81.4 104.66,-147.48l-1.24 0.36z"/>
  <path class="fil1" d="M10750.16 5536.3c-19.03,58.67 -74.01,78.94 -138.84,56.38l-46.51 -20.79 58.67 -167.74 53.21 12.86c62.37,20.26 92.33,61.14 74.01,119.28l-0.53 0zm48.28 -88.81l-108.9 -76.47 -109.59 -28.18 -143.79 427.1 57.62 20.27 55.68 -172.67 44.75 17.8 148.71 -2.47 63.09 -80.7 -7.41 -103.95 -0.17 -0.71z"/>
  <path class="fil1" d="M11099.04 5658.06c-20.27,47.74 -69.78,66.07 -127.22,42.81l-56.38 -20.26 58.67 -157.35 55.15 17.8c58.68,20.8 90.04,60.61 69.78,116.82l0 0.18zm51.98 -81.41c-17.1,-33.12 -49.51,-58.67 -107.65,-81.4l-109.6 -29.96 -160.34 421.64 55.68 20.27 69.77 -185.36 52.69 20.27c48.27,20.26 64.31,50.74 52.69,114.53 -6.7,58.67 -11.63,99.73 -9.17,112.06l58.67 23.26c-2.46,-20.8 3,-64.32 10.4,-129.68l-31.89 -109.6 2.46 -2.46 119.28 -78.94 -2.46 -93.56 -0.53 -1.06z"/>
  <path class="fil1" d="M11502.88 5937.67c-43.53,93.56 -127.22,149.42 -211.09,111.36 -85.64,-37.88 -99.73,-136.55 -58.68,-225.88 41.06,-91.8 122.46,-155.41 211.8,-114.53 88.8,40.35 93.56,145.01 58.14,228.88l-0.17 0.17zm-36.12 -272.22c-112.07,-48.28 -231.35,0 -291.26,132.15 -55.68,126.69 -15.85,245.98 93.03,294.96 104.66,48.27 226.41,9.86 288.78,-132.16 56.91,-124.22 23.79,-243.5 -90.56,-294.42l0 -0.53z"/>
  <path class="fil1" d="M11938.62 5907.73c-132.86,-74.01 -263.24,-33.13 -328.61,86.34 -34.36,60.61 -43.52,126.15 -25.72,176.9 18.33,61.14 58.67,102.9 118.75,137.79l135.32 43.52 105.19 -191 -130.92 -74.01 -23.26 43.53 81.4 43.52 -65.55 119.28 -74.71 -25.72c-94.26,-53.22 -121.22,-145.72 -65.55,-246.68 56.39,-101.67 151.71,-126.69 249.15,-73.47l77.7 66.08 36.65 -35.42 -90.04 -71 0.18 0.35z"/>
  <path class="fil1" d="M12129.61 6278.09l-49.51 -33.13 90.57 -138.84 53.21 27.48 40.36 129.15 -135.33 14.62 0.71 0.71zm187.29 10.4l19.03 -91.8 -90.56 -103.96 -100.44 -53.92 -245.97 376.36 48.27 30.66 108.9 -162.8 44.75 31.19c43.53,30.66 50.74,63.08 28.19,124.22l-34.36 107.12 49.51 32.42c2.46,-20.26 19.03,-63.61 41.59,-124.22l-6.18 -111.36 0 -2.46 136.56 -50.74 0.7 -0.7z"/>
  <polygon class="fil1" points="12633.89,6440.9 12663.84,6399.84 12468.61,6252.37 12194.45,6613.4 12397.08,6768.28 12424.56,6730.21 12270.92,6610.93 12368.88,6478.78 12508.44,6588.38 12538.39,6547.85 12397.08,6440.9 12486.41,6326.37 "/>
  <path class="fil1" d="M12854.31 6547.85c-69.24,-56.38 -146.95,-53.22 -193.46,0 -39.83,47.75 -32.43,108.89 7.4,174.96 33.13,58.14 36.65,93.56 7.4,126.68l-123.69 -2.46 -61.13 -91.27 -43.53 28.19 71.54 96.02c81.4,71.53 160.34,58.67 206.32,2.46 42.29,-50.74 37.88,-103.95 -3.69,-174.96 -30.67,-61.13 -37.36,-93.55 -11.63,-126.68l111.36 2.46 50.74 73.47 42.81 -25.01 -60.6 -83.17 0.17 -0.7z"/>
  <path class="fil1" d="M13114.38 6778.67c-66.78,-58.68 -145.72,-61.14 -194.7,-7.94 -42.29,48.28 -34.88,107.13 2.47,176.21 29.43,59.9 31.89,93.55 3.69,126.68l-124.92 -7.4 -55.68 -94.27 -45.99 25.73 66.78 101.66c78.94,71.01 160.34,63.61 205.63,9.87 45.98,-48.27 43.52,-102.19 4.22,-177.43 -29.43,-58.68 -34.89,-93.56 -6.7,-124.22l108.9 7.4 50.74 74.01 44.05 -22.73 -58.68 -86.34 0.18 -1.23z"/>
  <path class="fil1" d="M13340.09 7317.31c-74.01,74.01 -169.5,99.73 -239.28,33.12 -65.54,-63.61 -43.52,-162.8 26.26,-233.82 69.24,-71 167.03,-101.66 236.28,-33.12 72.24,68.54 37.88,167.74 -22.73,233.82l-0.53 0zm58.14 -266.94c-86.34,-83.86 -216.01,-78.93 -318.21,22.73 -95.49,99.2 -100.43,226.42 -14.09,309.75 83.86,81.41 211.09,88.81 319.44,-25.01 94.79,-96.03 103.96,-220.95 12.86,-307.29l0 -0.18z"/>
  <polygon class="fil4" points="12453.29,7737.01 12412.41,7779.3 12368.88,7737.01 12412.41,7694.9 "/>
  <polygon class="fil4" points="12146.18,7757.28 12104.59,7800.08 12061.6,7757.28 12104.59,7714.99 "/>
  <polygon class="fil4" points="12115.52,7975.23 12078.87,8011.88 12040.81,7975.23 12078.87,7937.87 "/>
  <polygon class="fil4" points="12056.84,8104.91 12021.25,8139.79 11987.07,8104.91 12021.25,8070.02 "/>
  <polygon class="fil4" points="11917.3,8174.68 11882.41,8209.57 11848.05,8174.68 11882.41,8139.79 "/>
  <polygon class="fil4" points="11722.06,8225.43 11686.47,8260.32 11651.06,8225.43 11686.47,8191.25 "/>
  <polygon class="fil4" points="11871.31,8466.64 11830.25,8509.46 11785.67,8466.64 11830.25,8424.35 "/>
  <polygon class="fil4" points="11882.41,8668.04 11840.65,8710.85 11797.3,8668.04 11840.65,8625.75 "/>
  <polygon class="fil4" points="11161.93,8230.36 11133.92,8259.08 11105.02,8230.36 11133.92,8202.17 "/>
  <polygon class="fil4" points="10953.85,8230.36 10926.35,8259.08 10898.87,8230.36 10926.35,8201.64 "/>
  <polygon class="fil4" points="11026.08,8481.26 10998.6,8509.46 10969.17,8481.26 10998.6,8452.55 "/>
  <polygon class="fil4" points="10198.13,8837.54 10156.38,8879.65 10114.27,8837.54 10156.38,8795.25 "/>
  <polygon class="fil4" points="10156.38,7820.88 10114.27,7863.17 10071.45,7820.88 10114.27,7778.76 "/>
  <polygon class="fil4" points="10421.38,7503.9 10379.26,7545.48 10336.45,7503.9 10379.26,7461.62 "/>
  <polygon class="fil4" points="10103.16,7207 10061.05,7249.29 10019.3,7207 10061.05,7164.89 "/>
  <polygon class="fil4" points="9796.05,7419.5 9753.76,7461.62 9712.19,7419.5 9753.76,7377.21 "/>
  <polygon class="fil4" points="9950.23,7567.51 9923.97,7593.93 9897.01,7567.51 9923.97,7541.26 "/>
  <polygon class="fil4" points="10918.43,6423.1 10876.14,6466.45 10834.03,6423.1 10876.14,6381.53 "/>
  <polygon class="fil4" points="11247.04,5195.89 11204.93,5238.18 11161.93,5195.89 11204.93,5153.77 "/>
  <polygon class="fil4" points="9087.21,6667.84 9044.4,6710.12 9003.34,6667.84 9044.4,6625.03 "/>
  <polygon class="fil4" points="8726.71,8223.67 8685.12,8265.77 8643.02,8223.67 8685.12,8181.38 "/>
  <polygon class="fil4" points="8134.34,7990.38 8102.44,8022.27 8071.25,7990.38 8102.44,7958.66 "/>
  <polygon class="fil4" points="8155.83,7725.38 8124.47,7757.28 8092.05,7725.38 8124.47,7693.66 "/>
  <polygon class="fil4" points="7988.62,7498.44 7959.37,7527.15 7930.47,7498.44 7959.37,7469.01 "/>
  <polygon class="fil4" points="7647.15,7535.79 7604.86,7577.38 7562.04,7535.79 7604.86,7493.5 "/>
  <polygon class="fil4" points="7317.31,7688.73 7293.35,7712.52 7269.03,7688.73 7293.35,7665.48 "/>
  <polygon class="fil4" points="7350.43,5947.54 7308.67,5989.83 7266.56,5947.54 7308.67,5905.26 "/>
 </g>
</svg>
